# xmcd CD database file generated by libcdaudio 0.99.9
# 
# Track frame offsets:
#       150
#       18090
#       33482
#       48730
#       63842
#       84772
#       102655
#       119190
#       156757
#       175837
#       198925
#       225975
#       248597
# 
# Disc length: 3673 seconds
# 
# Revision: 0
# Processed by: cddbd v1.5.1PL0 Copyright (c) Steve Scherf et al.
# Submitted via: libcdaudio 0.99.9
# 
DISCID=9f0e570d
DTITLE=Madcat and Kane - Up Against the Wall
DYEAR=1900
DGENRE=
TTITLE0=Moon Goin' Down
TTITLE1=Act Like You Love Me
TTITLE2=Stones in My Passway
TTITLE3=You Used to Call Me Mama
TTITLE4=I'm Doing All Right
TTITLE5=Darkness
TTITLE6=Did You Save Me a Taste?
TTITLE7=Rosalie
TTITLE8=Black Cat Bone
TTITLE9=You Got to Move
TTITLE10=Angel from Montgomery
TTITLE11=I Believe in a New Day
TTITLE12=C. C. Rider
EXTD=
EXTT0=
EXTT1=
EXTT2=
EXTT3=
EXTT4=
EXTT5=
EXTT6=
EXTT7=
EXTT8=
EXTT9=
EXTT10=
EXTT11=
EXTT12=
PLAYORDER=
